<?xml version="1.0" standalone="no"?>
<!DOCTYPE svg PUBLIC "-//W3C//DTD SVG 20010904//EN"
 "http://www.w3.org/TR/2001/REC-SVG-20010904/DTD/svg10.dtd">
<svg version="1.0" xmlns="http://www.w3.org/2000/svg"
 width="1482.000000pt" height="1482.000000pt" viewBox="0 0 1482.000000 1482.000000"
 preserveAspectRatio="xMidYMid meet">
<metadata>
Created by potrace 1.14, written by Peter Selinger 2001-2017
</metadata>
<g transform="translate(0.000000,1482.000000) scale(0.100000,-0.100000)"
fill="#000000" stroke="none">
<path d="M14239 14808 l-36 -9 -13 -212 c-7 -117 -17 -217 -22 -224 -9 -11
-116 -79 -186 -118 -20 -12 -53 -30 -72 -40 -53 -30 -120 -104 -145 -160 -12
-27 -38 -66 -58 -86 -21 -21 -37 -43 -37 -51 0 -8 -15 -29 -34 -46 -59 -53
-214 -166 -258 -188 -24 -11 -74 -36 -113 -54 -38 -19 -86 -47 -106 -62 -20
-15 -42 -28 -48 -28 -6 0 -11 -4 -11 -8 0 -5 -28 -29 -62 -54 -35 -25 -75 -57
-89 -69 -14 -13 -48 -42 -75 -64 -70 -57 -244 -230 -244 -243 0 -6 -4 -12 -9
-14 -4 -1 -35 -34 -67 -73 -32 -38 -90 -102 -129 -141 -74 -76 -87 -90 -150
-169 -41 -52 -137 -165 -168 -200 -11 -11 -39 -46 -64 -77 -24 -32 -51 -58
-60 -58 -26 0 -77 -37 -96 -69 -10 -16 -26 -63 -36 -104 -37 -143 -142 -293
-261 -373 -108 -73 -188 -152 -266 -264 -62 -89 -77 -109 -135 -174 -41 -47
-111 -187 -129 -261 -18 -73 -21 -96 -27 -243 -4 -106 -2 -143 11 -182 21 -63
20 -72 -5 -104 -20 -25 -24 -26 -122 -26 -68 0 -129 -7 -182 -20 -44 -11 -100
-20 -124 -20 -25 0 -86 -7 -135 -15 -306 -50 -521 -67 -1044 -85 -350 -12
-372 -11 -372 24 0 16 -57 77 -105 112 -61 46 -228 124 -264 124 -25 0 -93 27
-101 39 -3 5 -26 20 -52 34 -25 13 -67 42 -92 63 -39 32 -59 41 -138 56 -78
15 -97 23 -120 48 -15 17 -32 30 -38 30 -5 0 -10 4 -10 8 0 5 -26 19 -57 32
-32 12 -65 28 -73 34 -55 41 -87 51 -171 51 -47 1 -98 6 -115 12 -16 6 -56 19
-89 28 -33 9 -79 26 -103 37 -24 11 -52 18 -65 14 -13 -3 -46 6 -84 24 -35 17
-69 30 -76 30 -7 0 -17 4 -23 9 -5 5 -36 24 -69 41 -70 38 -152 48 -257 32
-64 -10 -136 -2 -163 19 -40 31 -108 42 -295 49 -107 4 -240 13 -295 20 -81
11 -147 11 -355 1 -140 -7 -397 -16 -570 -20 -173 -5 -356 -12 -406 -16 -111
-9 -201 5 -294 48 -63 29 -67 30 -182 24 -65 -3 -127 -11 -139 -18 -54 -29
-202 -7 -436 62 -18 6 -54 14 -80 19 -27 4 -73 13 -103 18 -133 25 -194 34
-277 42 -315 29 -473 48 -633 76 -47 8 -98 14 -114 14 -29 0 -148 19 -284 46
-40 8 -91 14 -114 14 -44 0 -168 22 -258 45 -30 8 -86 17 -125 20 -211 18
-333 33 -358 43 -16 7 -45 12 -66 12 -37 0 -115 34 -156 68 -38 32 -83 52
-118 52 -19 0 -65 12 -103 26 -38 14 -82 29 -99 34 -16 4 -43 13 -58 19 -16 6
-79 11 -141 11 -122 0 -221 19 -242 48 -7 9 -14 34 -14 55 0 83 -43 134 -119
144 -55 7 -84 -26 -91 -105 l-5 -56 -33 32 c-18 18 -37 32 -42 32 -6 0 -10 4
-10 10 0 14 -67 29 -106 23 -20 -3 -43 -16 -54 -31 -24 -29 -26 -90 -5 -118 8
-11 14 -41 15 -71 0 -44 5 -58 30 -86 17 -19 30 -45 30 -57 0 -12 11 -31 25
-42 14 -11 25 -26 25 -35 0 -9 15 -30 34 -47 33 -32 33 -33 38 -137 2 -57 9
-113 15 -124 6 -11 20 -42 32 -70 12 -27 38 -63 58 -80 98 -82 100 -85 107
-185 4 -50 14 -106 21 -123 19 -45 62 -82 118 -101 84 -28 155 -19 306 41 80
31 105 28 236 -27 55 -23 124 -51 154 -63 30 -12 93 -42 140 -66 501 -257 775
-390 891 -433 146 -53 160 -61 211 -108 63 -58 206 -149 265 -169 277 -95 608
-115 914 -54 126 25 403 47 450 36 66 -15 154 -50 264 -104 67 -33 157 -72
201 -87 110 -38 148 -61 140 -87 -3 -11 -8 -102 -12 -203 -6 -181 -6 -183 17
-207 13 -14 39 -28 59 -31 20 -4 43 -10 52 -15 20 -10 157 -39 184 -39 11 0
49 -9 85 -19 36 -11 99 -27 140 -35 41 -8 110 -22 153 -30 43 -9 89 -16 102
-16 13 0 80 -26 147 -58 68 -32 143 -66 168 -76 25 -10 54 -22 65 -27 47 -20
114 -38 165 -45 30 -4 82 -20 115 -37 33 -17 82 -41 109 -55 28 -14 75 -28
105 -33 201 -29 286 -40 359 -49 62 -7 95 -16 130 -37 90 -54 129 -64 319 -85
105 -11 130 -10 363 26 86 14 122 15 205 6 113 -12 114 -13 320 -117 159 -81
205 -108 244 -142 13 -11 31 -21 40 -22 22 0 85 -34 168 -90 63 -42 114 -67
202 -100 52 -19 124 -81 178 -153 48 -64 108 -119 148 -137 22 -10 36 -18 115
-70 31 -20 67 -40 80 -44 37 -10 145 -63 218 -106 35 -21 96 -47 135 -60 146
-45 260 -103 321 -165 47 -46 54 -59 89 -172 36 -115 41 -125 95 -180 76 -79
121 -102 197 -102 54 0 126 -11 270 -42 65 -13 131 -46 149 -73 8 -12 26 -51
41 -86 104 -250 163 -327 300 -393 119 -57 132 -61 300 -111 68 -20 81 -27
144 -88 25 -24 58 -51 72 -61 16 -10 34 -36 43 -64 47 -131 105 -198 201 -233
85 -32 120 -56 207 -147 67 -70 154 -143 213 -179 11 -7 137 -71 280 -143 143
-72 287 -146 320 -164 33 -19 77 -44 97 -55 20 -11 56 -34 79 -51 23 -16 47
-30 52 -30 6 0 35 -12 66 -26 31 -15 90 -42 131 -61 170 -80 285 -140 360
-187 118 -75 152 -117 184 -221 11 -33 22 -69 27 -80 4 -11 18 -45 30 -75 12
-30 35 -83 50 -118 16 -34 29 -68 29 -75 0 -6 7 -21 15 -31 8 -11 15 -28 15
-38 0 -10 4 -18 8 -18 5 0 14 -11 20 -25 18 -40 162 -145 198 -145 31 0 42
-44 48 -205 3 -88 11 -225 16 -305 12 -178 28 -478 40 -750 5 -113 13 -259 19
-325 13 -139 29 -387 41 -630 5 -93 13 -231 19 -305 6 -74 16 -211 22 -305 17
-250 18 -263 29 -343 6 -40 10 -139 10 -220 0 -81 5 -203 11 -272 5 -69 14
-181 19 -250 5 -69 9 -126 10 -127 0 -2 72 -3 160 -3 l161 0 -4 578 c-2 328
-8 633 -15 707 -6 72 -18 238 -27 370 -9 132 -22 328 -30 435 -35 478 -45 630
-45 695 -1 39 -7 133 -15 210 -8 77 -15 190 -15 250 0 61 -7 182 -15 270 -8
88 -15 214 -15 280 -1 66 -4 152 -8 190 -11 108 -6 140 25 154 72 33 89 81 53
148 -19 36 -19 37 -1 55 28 25 33 50 22 98 -7 33 -6 50 7 76 12 27 13 38 4 59
-7 14 -12 45 -12 68 -1 23 -7 60 -15 82 -8 22 -15 61 -15 86 0 38 -4 50 -25
63 -13 9 -35 16 -47 16 -13 0 -28 4 -34 8 -7 4 -13 80 -18 212 -3 113 -11 279
-16 370 -16 254 -29 616 -40 1055 -5 220 -14 481 -20 580 -58 1016 -46 6192
16 6503 3 12 15 27 28 32 35 13 60 51 81 121 10 35 29 81 42 101 13 21 30 57
38 80 28 82 14 122 -42 118 -51 -4 -54 -2 -47 28 4 15 12 30 18 34 8 5 5 19
-8 43 -16 29 -18 40 -8 53 28 39 34 66 22 105 -6 20 -15 37 -20 37 -6 0 -10
32 -10 71 0 64 -3 75 -30 109 -27 34 -29 43 -32 135 l-3 98 -65 19 c-70 19
-181 22 -241 6z m-157 -1245 l68 -6 -5 -341 c-3 -188 -7 -435 -10 -551 -3
-115 -10 -394 -15 -620 -13 -551 -13 -3583 0 -4115 6 -234 13 -553 16 -710 2
-157 9 -413 14 -570 6 -157 13 -388 16 -515 3 -126 10 -322 16 -435 5 -113 12
-316 15 -452 l5 -248 -35 0 c-38 0 -147 47 -217 94 -50 33 -188 151 -208 178
-52 70 -210 212 -368 333 -92 70 -265 219 -344 295 -30 29 -86 78 -124 109
-38 31 -88 74 -111 96 -23 22 -62 52 -86 66 -24 15 -97 61 -163 103 -65 42
-133 83 -151 90 -17 8 -54 30 -82 50 -28 20 -53 36 -57 36 -16 0 -76 79 -76
101 0 6 -6 25 -14 42 -8 18 -31 74 -52 125 -21 50 -42 92 -46 92 -4 0 -8 7 -8
15 0 7 -6 18 -13 22 -8 4 -24 24 -38 43 -13 19 -28 40 -34 46 -5 6 -17 22 -25
34 -8 12 -22 30 -30 40 -8 10 -31 38 -51 61 -20 24 -60 73 -89 109 -62 76
-147 161 -187 187 -42 27 -43 28 -113 88 -117 102 -151 137 -172 178 -19 38
-20 51 -13 147 9 125 7 192 -6 280 -5 36 -13 92 -16 125 -5 60 -5 61 31 93 57
49 111 73 186 79 l67 6 24 -49 c15 -30 72 -99 150 -179 69 -71 131 -137 137
-145 46 -60 83 -96 131 -127 30 -19 80 -59 110 -88 62 -58 137 -90 296 -125
115 -26 352 -36 541 -22 147 11 173 19 240 78 12 11 43 37 69 59 27 22 63 52
80 67 18 15 53 64 79 108 25 44 50 80 56 80 20 0 32 84 42 295 6 121 11 238
11 260 1 57 -20 176 -32 188 -6 6 -11 20 -11 32 0 12 -7 30 -15 41 -8 10 -15
31 -15 45 0 39 -61 102 -132 136 -86 43 -176 73 -215 73 -36 0 -63 29 -63 67
0 15 -6 23 -17 23 -278 3 -404 9 -448 23 -27 9 -79 21 -115 27 -61 9 -66 9
-83 -11 -16 -20 -21 -21 -75 -10 -31 6 -109 14 -172 17 -98 5 -127 3 -195 -16
-44 -12 -98 -26 -120 -32 -102 -26 -237 9 -263 68 -17 35 -15 98 4 142 44 105
72 209 80 305 l7 72 120 120 c121 121 219 241 249 305 34 72 48 108 48 125 0
9 5 25 10 35 6 11 15 68 21 127 14 154 -3 316 -46 418 -14 34 -5 59 41 120 28
37 110 195 130 250 24 64 47 151 99 369 12 52 15 91 9 156 -6 84 -6 87 21 119
15 18 62 58 104 90 42 32 134 115 204 185 70 69 156 146 190 170 34 24 83 66
108 93 45 48 57 66 99 153 30 62 81 136 130 190 23 25 67 79 98 120 31 41 98
118 148 170 50 52 116 124 146 160 30 36 70 81 89 100 19 19 59 63 89 98 50
57 77 75 165 112 51 22 67 23 167 13z"/>
</g>
</svg>
